<svg xmlns="http://www.w3.org/2000/svg" width="512" height="512" viewBox="0 0 512 512" version="1.1">
	<path d="M 227.686 0.647 C 227.309 1.024, 227 8.172, 227 16.530 C 227 33.611, 226.092 39.934, 222.521 47.736 C 217.365 58.998, 202.781 69.096, 184.500 74.062 C 177.016 76.095, 173.309 76.285, 127 77.016 C 73.608 77.859, 61.836 78.802, 45.365 83.557 C 29.279 88.201, 20.754 93.530, 13.958 103.191 C 9.121 110.067, 5.447 119.425, 2.842 131.500 C 0.341 143.092, -0.992 178.100, 0.977 180.472 C 2.034 181.746, 5.450 182, 21.500 182 C 35.710 182, 41.014 181.672, 41.745 180.750 C 42.289 180.063, 43.004 172.750, 43.335 164.500 C 44.283 140.843, 47.801 131.636, 57.836 126.550 C 66.256 122.283, 72.321 121.793, 127 120.963 C 182.316 120.124, 192.047 119.378, 206 114.911 C 226.784 108.257, 239.431 93.583, 246.082 68.409 L 248.369 59.748 250.689 68.485 C 253.542 79.232, 259.708 92.607, 265.106 99.757 C 272.568 109.640, 284.884 115.374, 305.500 118.563 C 314.461 119.950, 327.806 120.402, 377.500 121.003 C 429.602 121.634, 439.446 121.986, 444.986 123.414 C 463.036 128.069, 467.825 136.253, 468.733 164 C 469.013 172.525, 469.692 180.063, 470.243 180.750 C 470.982 181.672, 476.290 182, 490.467 182 C 507.820 182, 509.851 181.822, 511.345 180.171 C 512.732 178.639, 513 175.885, 513 163.171 C 513 154.827, 512.615 148, 512.144 148 C 511.673 148, 511.003 144.944, 510.656 141.208 C 509.050 123.924, 501.706 105.759, 492.768 96.961 C 484.465 88.788, 471.268 83.485, 450.699 80.057 C 438.053 77.950, 413.682 77.052, 368.381 77.026 C 332.271 77.005, 321.493 76.691, 314.402 75.455 C 296.672 72.363, 283.870 66.031, 277.949 57.426 C 272.038 48.835, 270.762 42.836, 270.096 20.500 L 269.500 0.500 248.936 0.230 C 237.626 0.082, 228.064 0.269, 227.686 0.647 M 229 18.268 C 229 35.479, 227.910 42.336, 223.934 50.130 C 217.614 62.517, 201.351 72.649, 179.944 77.536 C 173.741 78.952, 164 79.358, 121.500 79.973 C 76.042 80.630, 69.239 80.939, 58.892 82.814 C 32.798 87.542, 19.920 95.311, 11.928 111.142 C 5.763 123.355, 2 144.973, 2 168.174 L 2 179 21.378 179 L 40.757 179 41.264 163.750 C 42.308 132.351, 47.861 124.718, 73.169 119.888 C 76.101 119.328, 102.800 118.492, 132.500 118.030 C 175.523 117.361, 188.017 116.868, 193.964 115.604 C 217.998 110.498, 228.630 102.932, 237.494 84.630 C 239.926 79.608, 243.172 70.632, 244.708 64.683 C 246.244 58.734, 247.935 53.874, 248.467 53.884 C 248.998 53.894, 250.019 56.511, 250.734 59.701 C 254.649 77.145, 262.284 93.906, 269.804 101.561 C 272.724 104.533, 277.147 107.551, 281.500 109.540 C 287.623 112.339, 291.414 113.445, 305.500 116.539 C 307.150 116.901, 336.625 117.548, 371 117.976 C 428.547 118.693, 434.232 118.917, 442.741 120.797 C 457.928 124.155, 463.904 128.794, 468.164 140.533 C 469.947 145.447, 470.409 149.366, 470.782 162.750 L 471.235 179 490.617 179 L 510 179 509.997 168.750 C 509.989 145.124, 506.239 123.360, 500.072 111.142 C 493.958 99.030, 485.324 92.055, 470.288 87.079 C 452.205 81.096, 448.143 80.770, 381.500 79.955 C 333.395 79.367, 318.864 78.888, 312.761 77.690 C 289.193 73.063, 276.636 64.279, 270.746 48.299 C 268.923 43.353, 268.527 39.558, 268.054 22.500 L 267.500 2.500 248.250 2.228 L 229 1.957 229 18.268 M 0.405 164.500 C 0.406 173.300, 0.559 176.766, 0.745 172.203 C 0.930 167.639, 0.929 160.439, 0.742 156.203 C 0.555 151.966, 0.404 155.700, 0.405 164.500 M 166.571 178.571 C 165.293 179.850, 165 182.742, 165 194.071 L 165 208 151.535 208 C 135.992 208, 136 207.995, 136 217.352 C 136 226.383, 135.330 226, 151.107 226 L 165 226 165.020 255.750 C 165.031 272.113, 165.486 288.650, 166.031 292.500 C 167.445 302.490, 171.870 311.063, 177.557 314.830 C 184.586 319.486, 190.388 320.500, 210 320.500 L 227.500 320.500 227.796 312.520 C 228.043 305.875, 227.802 304.328, 226.355 303.270 C 225.153 302.392, 220.438 301.999, 211.059 301.996 C 199.224 301.993, 197.079 301.736, 194.190 299.974 C 188.260 296.359, 188 294.622, 188 258.553 L 188 226.042 207.750 225.771 L 227.500 225.500 227.796 218.158 C 227.979 213.605, 227.647 210.280, 226.923 209.408 C 225.995 208.288, 221.886 208, 206.878 208 L 188 208 188 194.071 C 188 176.803, 188.133 177, 176.500 177 C 170.236 177, 167.749 177.394, 166.571 178.571 M 320.251 203.448 C 302.406 207.520, 292.612 219.294, 292.723 236.539 C 292.835 253.903, 301.924 262.554, 325.287 267.532 C 340.387 270.749, 345.451 272.616, 349.545 276.477 C 352.543 279.305, 353 280.365, 353 284.486 C 353 288.649, 352.533 289.703, 349.214 293.022 C 344.202 298.034, 339.037 299.361, 327 298.730 C 317.873 298.252, 312.489 296.789, 298.397 290.957 C 292.780 288.632, 292 289.776, 292 300.346 C 292 307.151, 292.384 310.074, 293.387 310.907 C 294.151 311.540, 299.213 313.217, 304.637 314.633 C 317.845 318.081, 336.635 318.973, 346 316.596 C 355.391 314.213, 362.583 310.258, 367.529 304.756 C 373.014 298.656, 375.346 291.845, 375.359 281.887 C 375.381 264.503, 365.133 254.419, 343.500 250.540 C 321.368 246.570, 315 243.070, 315 234.874 C 315 225.767, 320.203 222.022, 333.938 221.241 C 343.495 220.697, 351.382 222.264, 361.148 226.647 C 369.506 230.398, 370 229.944, 370 218.507 C 370 209.016, 369.981 208.943, 367.250 207.848 C 354.613 202.783, 332.313 200.695, 320.251 203.448 M 252.388 295.980 C 248.606 297.508, 246 301.895, 246 306.735 C 246 310.480, 246.549 311.749, 249.400 314.600 C 252.386 317.586, 253.427 318, 257.950 318 C 260.782 318, 264.462 317.295, 266.128 316.434 C 269.037 314.930, 272 309.883, 272 306.433 C 272 303.384, 268.977 298.418, 266.080 296.706 C 263.037 294.909, 255.967 294.534, 252.388 295.980 M 253.357 297.938 C 247.836 300.304, 246.315 307.929, 250.413 312.694 C 252.514 315.137, 253.540 315.500, 258.333 315.500 C 262.784 315.500, 264.333 315.035, 266.419 313.076 C 269.975 309.736, 270.045 303.330, 266.562 300.058 C 263.868 297.527, 256.919 296.412, 253.357 297.938 M 1.200 331.200 C -0.353 332.753, -0.411 357.098, 1.109 369.500 C 4.598 397.972, 13.928 414.448, 31.437 423.050 C 49.978 432.160, 64.839 434.001, 127.500 434.949 C 173.313 435.642, 177.017 435.831, 184.446 437.854 C 201.051 442.377, 215.118 451.227, 220.617 460.609 C 225.313 468.622, 226.231 473.369, 226.884 493 L 227.500 511.500 248.500 511.500 L 269.500 511.500 270.022 491.500 C 270.474 474.202, 270.849 470.622, 272.798 465 C 278.008 449.969, 288.011 442.308, 308.929 437.331 C 314.288 436.055, 326.475 435.627, 375 435.008 C 439.234 434.189, 449.250 433.471, 466.598 428.444 C 484.981 423.116, 495.935 414.678, 502.526 400.766 C 506.652 392.057, 509.831 380.152, 510.675 370.250 C 511.015 366.262, 511.677 363, 512.147 363 C 512.616 363, 513 355.773, 513 346.941 C 513 337.284, 512.629 331.111, 512.069 331.457 C 511.557 331.774, 510.856 331.575, 510.510 331.016 C 509.564 329.486, 471.742 329.658, 470.200 331.200 C 469.406 331.994, 468.997 336.309, 468.992 343.950 C 468.983 358.641, 467.651 366.909, 464.042 374.679 C 460.520 382.260, 456.583 385.114, 445.477 388.136 C 437.866 390.207, 434.699 390.341, 376.500 391.060 C 313.518 391.838, 304.469 392.417, 290.052 396.593 C 283.297 398.550, 274.303 403.033, 270.189 406.494 C 262.854 412.666, 254.958 427.751, 250.622 443.876 L 248.369 452.252 246.043 443.443 C 240.900 423.975, 230.201 408.473, 217.264 401.744 C 200.746 393.153, 191.017 392.002, 127 391.067 C 77.850 390.349, 73.998 390.163, 66.638 388.162 C 56.664 385.450, 52.636 382.941, 49.404 377.427 C 45.374 370.550, 44.012 363.726, 43.331 347 C 42.946 337.523, 42.273 331.214, 41.600 330.765 C 39.644 329.459, 2.542 329.858, 1.200 331.200 M 0.407 348 C 0.407 357.075, 0.559 360.788, 0.744 356.250 C 0.929 351.712, 0.929 344.288, 0.744 339.750 C 0.559 335.212, 0.407 338.925, 0.407 348 M 2.003 343.250 C 2.011 366.948, 5.760 388.640, 11.977 400.954 C 19.961 416.771, 33.730 424.812, 61 429.586 C 68.529 430.904, 81.084 431.407, 121.500 432.012 C 174.518 432.806, 177.449 433.041, 191.479 437.636 C 205.612 442.264, 218.176 451.396, 223.260 460.736 C 227.845 469.160, 229 475.801, 229 493.732 L 229 510.043 248.250 509.772 L 267.500 509.500 268.089 489.500 C 268.502 475.448, 269.141 468.090, 270.238 464.760 C 275.735 448.064, 287.276 439.677, 312.036 434.387 C 318.137 433.083, 330.730 432.648, 381 432.002 C 436.814 431.286, 443.517 431.023, 453.500 429.154 C 479.191 424.344, 492.195 416.462, 500.023 400.954 C 506.237 388.645, 510 367.097, 510 343.826 L 510 333 490.605 333 L 471.210 333 470.763 348.750 C 469.916 378.589, 464.194 386.819, 440.989 391.570 C 433.729 393.057, 423.526 393.412, 370.500 394.023 C 312.083 394.695, 307.922 394.862, 298.500 396.911 C 285.621 399.710, 275.820 404.334, 269.804 410.447 C 262.315 418.059, 254.648 434.855, 250.768 452.152 C 250.071 455.260, 249.050 457.892, 248.500 458 C 247.950 458.107, 246.244 453.314, 244.708 447.348 C 238.879 424.703, 228.593 409.448, 214.802 402.995 C 198.712 395.466, 185.764 394.007, 135 394.002 C 66.140 393.996, 53.978 391.528, 46.276 376 C 42.350 368.084, 41.017 360.180, 41.008 344.750 L 41 333 21.500 333 L 2 333 2.003 343.250" stroke="none" fill="black" fill-rule="evenodd"/>
</svg>