<svg width="235" height="217" viewBox="0 0 235 217" fill="none" xmlns="http://www.w3.org/2000/svg">
<g clip-path="url(#clip0)">
<path d="M256.328 215.851C241.832 184.769 184.307 135.526 184.307 135.526L155.659 126.474C144.372 118.277 153.482 128.182 154.341 91.5776C154.857 70.6851 142.768 58.1041 132.34 51.1019C123.344 45.0676 111.599 45.0676 102.603 51.1019C92.1752 58.1041 80.0858 70.6851 80.6015 91.5776C81.4609 128.182 90.5709 118.277 79.2836 126.474L50.6357 135.526C50.6357 135.526 -6.88939 184.825 -21.3853 215.851C-22.5885 218.47 -22.8177 221.487 -22.0728 224.276C-19.3799 234.353 -10.2698 260.539 15.9717 285.872L23.7639 300.104C23.7639 300.104 39.8068 299.649 46.7396 287.58L41.984 271.014C41.984 271.014 33.5042 238.508 26.8006 228.546C26.8006 228.546 44.1613 222.512 49.3752 216.25C49.3752 216.25 48.2866 273.576 52.6411 304.602C52.6411 304.602 51.1514 317.126 53.7297 324.64H117.5H181.27C183.849 317.126 182.359 304.602 182.359 304.602C186.713 273.576 185.625 216.25 185.625 216.25C190.839 222.512 208.199 228.546 208.199 228.546C201.439 238.508 193.016 271.014 193.016 271.014L188.26 287.58C195.193 299.649 211.236 300.104 211.236 300.104L219.028 285.872C245.27 260.483 254.38 234.353 257.073 224.276C257.818 221.487 257.589 218.47 256.328 215.851Z" fill="#FFB17A"/>
<path d="M154.398 91.5776C154.914 70.6851 142.825 58.1041 132.397 51.1019C123.401 45.0676 111.656 45.0676 102.66 51.1019C92.2324 58.1041 80.143 70.6851 80.6586 91.5776C81.5181 128.182 90.6281 118.277 79.3408 126.474C79.3408 126.474 99.4517 138.031 118.703 135.526C137.897 133.021 155.716 126.474 155.716 126.474C144.429 118.277 153.539 128.182 154.398 91.5776Z" fill="#FFA05C"/>
<path d="M-21.271 215.851C-22.4742 218.47 -22.7034 221.487 -21.9586 224.276C-19.2656 234.353 -10.1556 260.539 16.0859 285.872L23.8782 300.104C23.8782 300.104 39.921 299.649 46.8538 287.58L42.0983 271.014C42.0983 271.014 33.6185 238.508 26.9149 228.546C26.9149 228.546 44.2755 222.512 49.4895 216.25C56.0212 199.285 50.8073 135.469 50.8073 135.469C50.8073 135.469 -6.77513 184.769 -21.271 215.851Z" fill="#FFA05C"/>
<path d="M185.625 216.306C190.839 222.569 208.199 228.603 208.199 228.603C201.438 238.508 193.016 271.014 193.016 271.014L188.26 287.58C195.193 299.649 211.236 300.104 211.236 300.104L219.028 285.872C245.27 260.482 254.38 234.353 257.073 224.276C257.818 221.487 257.588 218.47 256.385 215.851C241.832 184.768 184.307 135.526 184.307 135.526C184.307 135.526 175.082 172.927 185.625 216.306Z" fill="#FFA05C"/>
<path d="M120.021 135.355C120.021 135.355 118.245 129.605 124.777 123.116C131.309 116.626 138.929 112.926 142.539 106.607C146.148 100.288 149.93 93.9687 148.326 81.9C146.721 69.8313 137.611 55.7701 123.459 54.7454C109.307 53.7207 98.7646 62.4876 92.6912 74.1578C86.6178 85.828 83.5238 93.5702 87.7637 105.468C89.4826 110.421 92.9204 114.121 97.3895 116.74C99.1656 117.764 101.056 118.561 102.833 119.529C106.156 121.237 109.25 124.083 112 126.588C113.031 127.556 113.891 128.638 114.636 129.89C114.979 130.459 117.271 135.754 117.271 135.754C117.214 135.697 120.021 135.355 120.021 135.355Z" fill="#383838"/>
<path d="M118.359 56.6239C133.485 54.4607 146.09 69.945 147.236 83.9493C148.096 94.0825 143.569 104.329 135.892 110.933C128.902 116.911 115.896 124.311 118.703 135.526C117.786 131.883 116.812 128.068 114.291 125.222C112.744 123.457 110.682 122.205 108.619 120.952C102.832 117.423 96.0139 114.121 91.7167 108.542C86.9611 102.337 87.0184 94.6517 88.8519 87.365C92.2896 73.7023 103.462 58.7303 118.359 56.6239Z" fill="#07070D"/>
<path d="M122.427 133.704C122.934 133.704 123.344 132.812 123.344 131.712C123.344 130.611 122.934 129.719 122.427 129.719C121.921 129.719 121.511 130.611 121.511 131.712C121.511 132.812 121.921 133.704 122.427 133.704Z" fill="black"/>
<path d="M112.745 134.501C113.251 134.501 113.662 133.609 113.662 132.509C113.662 131.408 113.251 130.516 112.745 130.516C112.239 130.516 111.828 131.408 111.828 132.509C111.828 133.609 112.239 134.501 112.745 134.501Z" fill="black"/>
<path d="M136.981 160.688C132.34 160.119 128.043 157.5 125.464 153.572C124.548 152.149 123.516 149.929 123.975 147.651C124.204 146.513 124.777 145.488 125.35 144.52C125.579 144.122 125.808 143.723 125.98 143.325C127.527 140.194 127.642 135.583 124.777 132.85C124.147 132.281 123.23 131.769 122.485 132.053L122.084 131.199C123.058 130.744 124.319 131.085 125.407 132.167C128.558 135.184 128.501 140.308 126.84 143.723C126.61 144.122 126.381 144.52 126.209 144.919C125.694 145.887 125.178 146.798 124.949 147.765C124.548 149.701 125.464 151.693 126.324 153.003C128.73 156.703 132.741 159.208 137.153 159.72L136.981 160.688Z" fill="#9FA1A4"/>
<path d="M107.015 164.218L106.728 163.307C107.416 163.079 108.046 162.453 108.39 161.599C108.734 160.745 108.791 159.777 108.848 158.866C109.02 155.678 109.249 152.092 108.103 148.961C107.817 148.221 107.473 147.481 107.129 146.741C106.843 146.114 106.499 145.488 106.27 144.805C105.124 141.845 105.067 138.942 106.098 136.494C107.301 133.647 110.166 131.769 112.974 131.939L112.916 132.907C110.51 132.736 108.046 134.387 107.015 136.835C106.098 138.999 106.155 141.731 107.244 144.407C107.473 145.033 107.817 145.659 108.103 146.285C108.447 147.025 108.848 147.822 109.135 148.619C110.338 151.978 110.109 155.678 109.937 158.923C109.88 159.891 109.822 160.916 109.421 161.94C108.848 163.079 107.989 163.933 107.015 164.218Z" fill="#9FA1A4"/>
<path d="M137.439 161.599C138.135 161.599 138.7 161.038 138.7 160.346C138.7 159.655 138.135 159.094 137.439 159.094C136.743 159.094 136.179 159.655 136.179 160.346C136.179 161.038 136.743 161.599 137.439 161.599Z" fill="#000E00"/>
<path d="M106.499 165.014C107.195 165.014 107.759 164.454 107.759 163.762C107.759 163.07 107.195 162.51 106.499 162.51C105.803 162.51 105.238 163.07 105.238 163.762C105.238 164.454 105.803 165.014 106.499 165.014Z" fill="#000E00"/>
<g filter="url(#filter0_d)">
<path d="M116.989 126.264C115.633 125.669 102.154 115.561 99.5 113.724L99.5001 107.384L133.5 109.477V112.197C124.791 116.861 119.119 127.2 116.989 126.264Z" fill="#65442E"/>
</g>
<path d="M159.5 70.3073C159.5 87.0642 157.026 93.2172 148.414 99.5625C139.802 105.908 131.19 116.172 117.5 116.172C103.81 116.172 96.368 105.908 88.8794 99.5625C81.3908 93.2172 75.5 87.0642 75.5 70.3073C75.5 42.8867 94.304 20.658 117.5 20.658C140.696 20.658 159.5 42.8867 159.5 70.3073Z" fill="#86593A"/>
<path d="M117.5 20.558C94.2338 20.558 75.4 42.8478 75.4 70.3073C75.4 78.6978 76.8749 84.4427 79.2936 88.887C81.7118 93.3303 85.0689 96.4648 88.8148 99.6388C90.2837 100.883 91.7506 102.279 93.2658 103.72C93.6789 104.113 94.0955 104.51 94.5168 104.907C96.482 106.762 98.5456 108.644 100.804 110.327C105.323 113.695 110.627 116.272 117.5 116.272C124.372 116.272 129.967 113.695 134.917 110.329C137.392 108.647 139.707 106.766 141.94 104.912C142.272 104.635 142.603 104.36 142.932 104.085C144.813 102.517 146.643 100.991 148.473 99.643C152.789 96.4629 155.576 93.3242 157.28 88.875C158.982 84.431 159.6 78.688 159.6 70.3073C159.6 42.8478 140.766 20.558 117.5 20.558Z" stroke="black" stroke-opacity="0.32" stroke-width="0.2"/>
<path d="M75.7493 52.189C78.1043 52.5804 80.7246 50.5063 81.7404 49.4203C80.702 47.8108 78.4141 44.7921 77.57 45.5933C76.5149 46.5947 75.1379 46.2034 72.2765 47.5257C74.2934 49.0598 80.0097 45.6988 77.9382 47.7865C76.281 49.4566 73.4923 50.2178 72.3051 50.3897C72.4719 50.8264 73.3944 51.7976 75.7493 52.189Z" fill="#171717"/>
<g filter="url(#filter1_i)">
<path d="M147.964 48.1701C124.119 36.9602 96.6909 43.4993 86.6426 48.1701V54.1548C86.6426 56.3495 79.6384 56.0768 79.6384 62.9504C79.6384 64.8369 75.7728 67.2987 75.241 69.6055C75.2012 70.0306 75.1807 70.2242 75.1807 70.1138C75.1807 69.9454 75.2018 69.7759 75.241 69.6055C75.4653 67.2131 76.3017 57.4897 77.5357 53.3743C78.9891 48.5278 84.6293 38.317 88.3551 33.7587C92.081 29.2005 105.94 20.3539 116.98 20.3539C128.564 20.3539 136.158 24.1231 145.472 32.5642C154.787 41.0054 158.418 56.2412 158.724 59.6208C158.971 62.3558 160.092 68.3281 159.616 70.5351C158.162 69.1109 155.3 67.1372 155.3 62.9504C155.3 57.2424 149.187 57.1356 149.187 54.1548C149.032 52.9089 148.232 50.7775 147.964 48.1701Z" fill="#171717"/>
</g>
<g filter="url(#filter2_di)">
<path d="M78.6116 51.7917C76.2924 50.2578 77.114 31.2999 85.9501 25.6006C95.7423 19.2845 105.671 21.1365 107.263 22.279C108.664 20.8192 112.103 18.2576 114.521 17.8996C121.054 16.9327 143.787 19.1375 153.869 30.8471C159.613 37.5193 157.058 51.6007 157.058 55.028C157.058 55.028 148.167 40.7427 142.167 39.5621C135.865 42.7488 132.434 38.8619 130.155 36.2264L126.555 35.2265C121.041 46.0424 80.9308 53.3256 78.6116 51.7917Z" fill="#171717"/>
</g>
<path d="M118.161 41.7755C113.194 44.3244 106.191 46.9379 97.554 49.1948C89.7701 51.2289 80.1194 51.8297 77.0678 52.0306C74.6504 52.1897 72.7159 50.6548 72.5068 50.3483" stroke="black" stroke-opacity="0.69" stroke-width="0.5"/>
<path d="M72.3945 47.5395C80.2461 47.2091 98.3355 43.9711 107.881 33.6624C110.516 28.6072 108.605 23.9568 107.321 22.2634" stroke="black" stroke-opacity="0.2" stroke-width="0.5"/>
<path d="M78.377 42.343C86.2285 42.0126 92.4883 40.6618 103.9 33.1522C106.535 28.097 108.108 23.9735 106.823 22.2802" stroke="black" stroke-opacity="0.2" stroke-width="0.5"/>
<path d="M84.4863 48.1639C98.8398 45.2114 104.44 44.0637 113.986 33.755C116.62 28.6998 108.891 23.7898 107.606 22.0964" stroke="black" stroke-opacity="0.2" stroke-width="0.5"/>
</g>
<defs>
<filter id="filter0_d" x="95.5" y="107.384" width="42" height="26.9401" filterUnits="userSpaceOnUse" color-interpolation-filters="sRGB">
<feFlood flood-opacity="0" result="BackgroundImageFix"/>
<feColorMatrix in="SourceAlpha" type="matrix" values="0 0 0 0 0 0 0 0 0 0 0 0 0 0 0 0 0 0 127 0"/>
<feOffset dy="4"/>
<feGaussianBlur stdDeviation="2"/>
<feColorMatrix type="matrix" values="0 0 0 0 0 0 0 0 0 0 0 0 0 0 0 0 0 0 0.25 0"/>
<feBlend mode="normal" in2="BackgroundImageFix" result="effect1_dropShadow"/>
<feBlend mode="normal" in="SourceGraphic" in2="effect1_dropShadow" result="shape"/>
</filter>
<filter id="filter1_i" x="75.1807" y="20.3539" width="84.5519" height="54.1812" filterUnits="userSpaceOnUse" color-interpolation-filters="sRGB">
<feFlood flood-opacity="0" result="BackgroundImageFix"/>
<feBlend mode="normal" in="SourceGraphic" in2="BackgroundImageFix" result="shape"/>
<feColorMatrix in="SourceAlpha" type="matrix" values="0 0 0 0 0 0 0 0 0 0 0 0 0 0 0 0 0 0 127 0" result="hardAlpha"/>
<feOffset dy="4"/>
<feGaussianBlur stdDeviation="2"/>
<feComposite in2="hardAlpha" operator="arithmetic" k2="-1" k3="1"/>
<feColorMatrix type="matrix" values="0 0 0 0 0 0 0 0 0 0 0 0 0 0 0 0 0 0 0.25 0"/>
<feBlend mode="normal" in2="shape" result="effect1_innerShadow"/>
</filter>
<filter id="filter2_di" x="73.5039" y="17.697" width="88.1205" height="45.3309" filterUnits="userSpaceOnUse" color-interpolation-filters="sRGB">
<feFlood flood-opacity="0" result="BackgroundImageFix"/>
<feColorMatrix in="SourceAlpha" type="matrix" values="0 0 0 0 0 0 0 0 0 0 0 0 0 0 0 0 0 0 127 0"/>
<feOffset dy="4"/>
<feGaussianBlur stdDeviation="2"/>
<feColorMatrix type="matrix" values="0 0 0 0 0 0 0 0 0 0 0 0 0 0 0 0 0 0 0.25 0"/>
<feBlend mode="normal" in2="BackgroundImageFix" result="effect1_dropShadow"/>
<feBlend mode="normal" in="SourceGraphic" in2="effect1_dropShadow" result="shape"/>
<feColorMatrix in="SourceAlpha" type="matrix" values="0 0 0 0 0 0 0 0 0 0 0 0 0 0 0 0 0 0 127 0" result="hardAlpha"/>
<feOffset dy="4"/>
<feGaussianBlur stdDeviation="2"/>
<feComposite in2="hardAlpha" operator="arithmetic" k2="-1" k3="1"/>
<feColorMatrix type="matrix" values="0 0 0 0 0 0 0 0 0 0 0 0 0 0 0 0 0 0 0.25 0"/>
<feBlend mode="normal" in2="shape" result="effect2_innerShadow"/>
</filter>
<clipPath id="clip0">
<rect width="235" height="217" fill="white"/>
</clipPath>
</defs>
</svg>
