<svg width="224" height="217" viewBox="0 0 224 217" fill="none" xmlns="http://www.w3.org/2000/svg">
<g clip-path="url(#clip0)">
<path d="M251.829 223.81C237.334 192.629 179.809 143.231 179.809 143.231L151.161 134.151C139.873 125.927 148.983 135.864 149.843 99.1437C150.358 78.1851 138.269 65.5643 127.841 58.5401C118.846 52.4866 107.1 52.4866 98.1046 58.5401C87.6767 65.5643 75.5872 78.1851 76.1029 99.1437C76.9624 135.864 86.0724 125.927 74.7851 134.151L46.1372 143.231C46.1372 143.231 -11.3879 192.686 -25.8838 223.81C-27.087 226.437 -27.3162 229.464 -26.5713 232.262C-23.8784 242.37 -14.7684 268.64 11.4731 294.053L19.2654 308.33C19.2654 308.33 35.3082 307.873 42.241 295.766L37.4855 279.147C37.4855 279.147 29.0057 246.539 22.3021 236.545C22.3021 236.545 39.6627 230.492 44.8767 224.21C44.8767 224.21 43.788 281.717 48.1425 312.841C48.1425 312.841 46.6528 325.405 49.2311 332.943H113.001H176.772C179.35 325.405 177.86 312.841 177.86 312.841C182.215 281.717 181.126 224.21 181.126 224.21C186.34 230.492 203.701 236.545 203.701 236.545C196.94 246.539 188.517 279.147 188.517 279.147L183.762 295.766C190.695 307.873 206.738 308.33 206.738 308.33L214.53 294.053C240.771 268.583 249.881 242.37 252.574 232.262C253.319 229.464 253.09 226.437 251.829 223.81Z" fill="#B2A8BF"/>
<path d="M149.9 99.1437C150.416 78.1851 138.326 65.5643 127.899 58.5401C118.903 52.4866 107.157 52.4866 98.162 58.5401C87.7341 65.5643 75.6447 78.1851 76.1603 99.1437C77.0198 135.864 86.1298 125.927 74.8425 134.151C74.8425 134.151 94.9534 145.744 114.205 143.231C133.399 140.718 151.218 134.151 151.218 134.151C139.931 125.927 149.041 135.864 149.9 99.1437Z" fill="#A195B1"/>
<path d="M-25.7693 223.81C-26.9725 226.437 -27.2017 229.464 -26.4568 232.262C-23.7639 242.37 -14.6539 268.64 11.5876 294.053L19.3799 308.33C19.3799 308.33 35.4227 307.873 42.3556 295.766L37.6 279.147C37.6 279.147 29.1202 246.539 22.4166 236.545C22.4166 236.545 39.7772 230.492 44.9912 224.21C51.5229 207.192 46.309 143.174 46.309 143.174C46.309 143.174 -11.2734 192.629 -25.7693 223.81Z" fill="#A195B1"/>
<path d="M181.126 224.267C186.34 230.549 203.701 236.602 203.701 236.602C196.94 246.539 188.518 279.147 188.518 279.147L183.762 295.766C190.695 307.873 206.738 308.33 206.738 308.33L214.53 294.053C240.771 268.583 249.881 242.37 252.574 232.262C253.319 229.464 253.09 226.437 251.887 223.81C237.334 192.629 179.809 143.231 179.809 143.231C179.809 143.231 170.584 180.751 181.126 224.267Z" fill="#A195B1"/>
<path d="M115.523 143.06C115.523 143.06 113.746 137.292 120.278 130.781C126.81 124.271 134.43 120.559 138.04 114.22C141.65 107.881 145.431 101.542 143.827 89.4354C142.222 77.3285 133.112 63.2229 118.96 62.195C104.808 61.167 94.2658 69.9616 88.1924 81.6687C82.119 93.3758 79.0251 101.142 83.265 113.078C84.9838 118.046 88.4216 121.758 92.8907 124.385C94.6669 125.413 96.5576 126.213 98.3338 127.184C101.657 128.897 104.751 131.752 107.501 134.265C108.532 135.236 109.392 136.321 110.137 137.577C110.481 138.148 112.772 143.459 112.772 143.459C112.715 143.402 115.523 143.06 115.523 143.06Z" fill="#383838"/>
<path d="M113.861 64.0795C128.987 61.9094 141.592 77.4428 142.738 91.4913C143.598 101.656 139.071 111.936 131.394 118.56C124.403 124.557 111.397 131.981 114.205 143.231C113.288 139.576 112.314 135.75 109.793 132.894C108.246 131.124 106.183 129.868 104.121 128.611C98.3338 125.071 91.5156 121.758 87.2184 116.162C82.4628 109.937 82.5201 102.228 84.3536 94.9177C87.7913 81.2119 98.964 66.1925 113.861 64.0795Z" fill="#07070D"/>
<path d="M117.929 141.403C118.435 141.403 118.846 140.509 118.846 139.405C118.846 138.301 118.435 137.406 117.929 137.406C117.423 137.406 117.012 138.301 117.012 139.405C117.012 140.509 117.423 141.403 117.929 141.403Z" fill="black"/>
<path d="M108.246 142.203C108.752 142.203 109.163 141.308 109.163 140.204C109.163 139.1 108.752 138.206 108.246 138.206C107.74 138.206 107.329 139.1 107.329 140.204C107.329 141.308 107.74 142.203 108.246 142.203Z" fill="black"/>
<path d="M132.482 168.473C127.841 167.901 123.544 165.274 120.966 161.334C120.049 159.906 119.018 157.679 119.476 155.395C119.705 154.253 120.278 153.225 120.851 152.254C121.08 151.854 121.309 151.454 121.481 151.055C123.028 147.914 123.143 143.288 120.278 140.547C119.648 139.976 118.731 139.462 117.986 139.747L117.585 138.891C118.559 138.434 119.82 138.776 120.908 139.861C124.06 142.888 124.002 148.028 122.341 151.454C122.112 151.854 121.882 152.254 121.711 152.654C121.195 153.624 120.679 154.538 120.45 155.509C120.049 157.451 120.966 159.449 121.825 160.763C124.232 164.475 128.242 166.988 132.654 167.502L132.482 168.473Z" fill="#9FA1A4"/>
<path d="M102.516 172.013L102.23 171.099C102.918 170.871 103.548 170.243 103.892 169.386C104.235 168.53 104.293 167.559 104.35 166.645C104.522 163.447 104.751 159.849 103.605 156.708C103.319 155.966 102.975 155.224 102.631 154.481C102.345 153.853 102.001 153.225 101.772 152.539C100.626 149.57 100.568 146.657 101.6 144.202C102.803 141.346 105.668 139.462 108.475 139.633L108.418 140.604C106.012 140.433 103.548 142.089 102.516 144.544C101.6 146.714 101.657 149.456 102.746 152.14C102.975 152.768 103.319 153.396 103.605 154.024C103.949 154.767 104.35 155.566 104.636 156.366C105.84 159.735 105.61 163.447 105.439 166.702C105.381 167.673 105.324 168.701 104.923 169.729C104.35 170.871 103.49 171.728 102.516 172.013Z" fill="#9FA1A4"/>
<path d="M132.94 169.386C133.637 169.386 134.201 168.824 134.201 168.13C134.201 167.436 133.637 166.874 132.94 166.874C132.244 166.874 131.68 167.436 131.68 168.13C131.68 168.824 132.244 169.386 132.94 169.386Z" fill="#000E00"/>
<path d="M102.001 172.813C102.697 172.813 103.261 172.25 103.261 171.556C103.261 170.862 102.697 170.3 102.001 170.3C101.305 170.3 100.74 170.862 100.74 171.556C100.74 172.25 101.305 172.813 102.001 172.813Z" fill="#000E00"/>
<g filter="url(#filter0_di)">
<path d="M64.8177 68.8001C64.3696 46.4 82.4052 28 104.81 28H124.234C146.205 28 164.125 45.7286 163.93 67.699C163.828 79.3094 163.593 89.6291 163.099 92.3196C161.829 99.2403 160.422 101.979 161.847 106.836C163.272 111.694 163.927 117 163.927 117H67.0019C67.0019 117 68.4945 110.713 68.4009 105.743C68.3074 100.772 65.311 93.4607 65.311 93.4607L64.8177 68.8001Z" fill="#D57E40"/>
</g>
<g filter="url(#filter1_d)">
<path d="M112.49 133.94C111.135 133.343 97.6559 123.203 95.0015 121.36L95.0015 115L129.001 117.1V119.828C120.292 124.507 114.621 134.879 112.49 133.94Z" fill="#CF9165"/>
</g>
<path d="M155.001 77.8063C155.001 94.6161 149.039 106.557 141.502 111.139C133.965 115.722 118.472 125 113.021 125C107.57 125 96.4991 116.276 88.4472 111.139C80.3954 106.003 71.0015 94.6161 71.0015 77.8063C71.0015 50.299 89.8055 28 113.001 28C136.197 28 155.001 50.299 155.001 77.8063Z" fill="#FFB17A"/>
<path d="M113.001 27.9C89.735 27.9 70.9015 50.2605 70.9015 77.8063C70.9015 94.656 80.318 106.072 88.3934 111.224C90.3079 112.445 92.3934 113.869 94.5352 115.332L94.8609 115.555C97.1161 117.095 99.4266 118.668 101.656 120.08C103.885 121.493 106.036 122.746 107.972 123.647C109.905 124.547 111.636 125.1 113.021 125.1C114.405 125.1 116.411 124.513 118.748 123.571C121.089 122.628 123.776 121.323 126.526 119.877C132.025 116.983 137.785 113.516 141.554 111.225C149.134 106.616 155.101 94.6333 155.101 77.8063C155.101 50.2605 136.268 27.9 113.001 27.9Z" stroke="black" stroke-opacity="0.32" stroke-width="0.2"/>
<g filter="url(#filter2_di)">
<path d="M93.5784 56.4935C106.21 54.4309 110.457 36.9732 111.001 28.5021C108.824 26.1735 100.728 25.4386 83.75 34.7502C56.7852 49.5388 65.266 84.8533 65.266 88.1681C65.266 91.4829 68.3514 83.9325 69.4403 82.2751C70.5292 80.6178 73.2516 72.1466 73.2516 69.016C73.2516 65.8854 77.7888 59.0717 93.5784 56.4935Z" fill="#D47E40"/>
</g>
<g filter="url(#filter3_di)">
<path d="M109.946 47.214C104.613 43.2153 107.724 32.7743 109.946 28.0537C112.353 26.2024 119.981 24.5504 132.721 28.0537C160.54 35.7039 163.958 63.9107 163.958 68.6314C163.958 73.352 164.179 80.8183 163.624 78.5968C163.068 76.3753 152.718 71.928 149.107 70.8172C145.497 69.7065 136.331 63.3197 132.721 58.0437C129.11 52.7677 116.612 52.2123 109.946 47.214Z" fill="#D47E40"/>
</g>
</g>
<defs>
<filter id="filter0_di" x="60.8096" y="28" width="107.122" height="97" filterUnits="userSpaceOnUse" color-interpolation-filters="sRGB">
<feFlood flood-opacity="0" result="BackgroundImageFix"/>
<feColorMatrix in="SourceAlpha" type="matrix" values="0 0 0 0 0 0 0 0 0 0 0 0 0 0 0 0 0 0 127 0"/>
<feOffset dy="4"/>
<feGaussianBlur stdDeviation="2"/>
<feColorMatrix type="matrix" values="0 0 0 0 0.791667 0 0 0 0 0.453167 0 0 0 0 0.209132 0 0 0 0.29 0"/>
<feBlend mode="normal" in2="BackgroundImageFix" result="effect1_dropShadow"/>
<feBlend mode="normal" in="SourceGraphic" in2="effect1_dropShadow" result="shape"/>
<feColorMatrix in="SourceAlpha" type="matrix" values="0 0 0 0 0 0 0 0 0 0 0 0 0 0 0 0 0 0 127 0" result="hardAlpha"/>
<feOffset dy="4"/>
<feGaussianBlur stdDeviation="2"/>
<feComposite in2="hardAlpha" operator="arithmetic" k2="-1" k3="1"/>
<feColorMatrix type="matrix" values="0 0 0 0 0.7625 0 0 0 0 0.39401 0 0 0 0 0.128354 0 0 0 1 0"/>
<feBlend mode="normal" in2="shape" result="effect2_innerShadow"/>
</filter>
<filter id="filter1_d" x="91.0015" y="115" width="42" height="27" filterUnits="userSpaceOnUse" color-interpolation-filters="sRGB">
<feFlood flood-opacity="0" result="BackgroundImageFix"/>
<feColorMatrix in="SourceAlpha" type="matrix" values="0 0 0 0 0 0 0 0 0 0 0 0 0 0 0 0 0 0 127 0"/>
<feOffset dy="4"/>
<feGaussianBlur stdDeviation="2"/>
<feColorMatrix type="matrix" values="0 0 0 0 0 0 0 0 0 0 0 0 0 0 0 0 0 0 0.25 0"/>
<feBlend mode="normal" in2="BackgroundImageFix" result="effect1_dropShadow"/>
<feBlend mode="normal" in="SourceGraphic" in2="effect1_dropShadow" result="shape"/>
</filter>
<filter id="filter2_di" x="60.0015" y="24" width="55" height="70" filterUnits="userSpaceOnUse" color-interpolation-filters="sRGB">
<feFlood flood-opacity="0" result="BackgroundImageFix"/>
<feColorMatrix in="SourceAlpha" type="matrix" values="0 0 0 0 0 0 0 0 0 0 0 0 0 0 0 0 0 0 127 0"/>
<feOffset dy="1"/>
<feGaussianBlur stdDeviation="2"/>
<feColorMatrix type="matrix" values="0 0 0 0 0 0 0 0 0 0 0 0 0 0 0 0 0 0 0.25 0"/>
<feBlend mode="normal" in2="BackgroundImageFix" result="effect1_dropShadow"/>
<feBlend mode="normal" in="SourceGraphic" in2="effect1_dropShadow" result="shape"/>
<feColorMatrix in="SourceAlpha" type="matrix" values="0 0 0 0 0 0 0 0 0 0 0 0 0 0 0 0 0 0 127 0" result="hardAlpha"/>
<feOffset dx="4"/>
<feGaussianBlur stdDeviation="2"/>
<feComposite in2="hardAlpha" operator="arithmetic" k2="-1" k3="1"/>
<feColorMatrix type="matrix" values="0 0 0 0 0.758333 0 0 0 0 0.419398 0 0 0 0 0.175049 0 0 0 0.8 0"/>
<feBlend mode="normal" in2="shape" result="effect2_innerShadow"/>
</filter>
<filter id="filter3_di" x="103.001" y="23" width="65" height="61" filterUnits="userSpaceOnUse" color-interpolation-filters="sRGB">
<feFlood flood-opacity="0" result="BackgroundImageFix"/>
<feColorMatrix in="SourceAlpha" type="matrix" values="0 0 0 0 0 0 0 0 0 0 0 0 0 0 0 0 0 0 127 0"/>
<feOffset dy="1"/>
<feGaussianBlur stdDeviation="2"/>
<feColorMatrix type="matrix" values="0 0 0 0 0 0 0 0 0 0 0 0 0 0 0 0 0 0 0.25 0"/>
<feBlend mode="normal" in2="BackgroundImageFix" result="effect1_dropShadow"/>
<feBlend mode="normal" in="SourceGraphic" in2="effect1_dropShadow" result="shape"/>
<feColorMatrix in="SourceAlpha" type="matrix" values="0 0 0 0 0 0 0 0 0 0 0 0 0 0 0 0 0 0 127 0" result="hardAlpha"/>
<feOffset dx="10" dy="10"/>
<feGaussianBlur stdDeviation="2"/>
<feComposite in2="hardAlpha" operator="arithmetic" k2="-1" k3="1"/>
<feColorMatrix type="matrix" values="0 0 0 0 0.756863 0 0 0 0 0.419608 0 0 0 0 0.176471 0 0 0 0.25 0"/>
<feBlend mode="normal" in2="shape" result="effect2_innerShadow"/>
</filter>
<clipPath id="clip0">
<rect width="224" height="217" fill="white"/>
</clipPath>
</defs>
</svg>
